<svg xmlns="http://www.w3.org/2000/svg" width="30.275" height="30.275" viewBox="0 0 30.275 30.275">
  <path id="github-square-brands" d="M27.031,32H3.244A3.245,3.245,0,0,0,0,35.244V59.031a3.245,3.245,0,0,0,3.244,3.244H27.031a3.245,3.245,0,0,0,3.244-3.244V35.244A3.245,3.245,0,0,0,27.031,32ZM18.74,57.93c-.568.1-.777-.25-.777-.541,0-.365.014-2.23.014-3.737a2.633,2.633,0,0,0-.764-2.075c2.5-.277,5.136-.622,5.136-4.94A3.47,3.47,0,0,0,21.193,44a4.227,4.227,0,0,0-.115-3.041c-.939-.291-3.088,1.21-3.088,1.21a10.631,10.631,0,0,0-5.623,0s-2.149-1.5-3.088-1.21A4.194,4.194,0,0,0,9.164,44a3.394,3.394,0,0,0-1.054,2.636c0,4.3,2.521,4.663,5.021,4.94a2.449,2.449,0,0,0-.716,1.507,2.371,2.371,0,0,1-3.264-.939A2.354,2.354,0,0,0,7.427,50.99c-1.095-.014-.074.689-.074.689.73.338,1.243,1.635,1.243,1.635.656,2.007,3.791,1.331,3.791,1.331,0,.939.014,2.467.014,2.744s-.2.642-.777.541a11.212,11.212,0,0,1-7.582-10.7A10.724,10.724,0,0,1,14.989,36.318,10.964,10.964,0,0,1,26.22,47.232,11.109,11.109,0,0,1,18.74,57.93ZM12.11,53.8c-.128.027-.25-.027-.264-.115s.074-.189.2-.216.25.041.264.128S12.245,53.774,12.11,53.8Zm-.642-.061c0,.088-.1.162-.237.162s-.25-.061-.25-.162.1-.162.237-.162S11.468,53.639,11.468,53.74Zm-.926-.074c-.027.088-.162.128-.277.088s-.216-.128-.189-.216.162-.128.277-.1c.135.041.223.142.189.23ZM9.711,53.3c-.061.074-.189.061-.291-.041s-.128-.216-.061-.277.189-.061.291.041S9.772,53.247,9.711,53.3ZM9.1,52.686c-.061.041-.176,0-.25-.1s-.074-.216,0-.264.189-.014.25.088A.2.2,0,0,1,9.1,52.686Zm-.439-.656c-.061.061-.162.027-.237-.041-.074-.088-.088-.189-.027-.237s.162-.027.237.041C8.7,51.882,8.718,51.983,8.657,52.03Zm-.453-.5a.127.127,0,0,1-.189.027c-.088-.041-.128-.115-.1-.176a.159.159,0,0,1,.189-.027C8.191,51.4,8.231,51.476,8.2,51.53Z" transform="translate(0 -32)" fill="#3ecfd4"/>
</svg>
