<svg xmlns="http://www.w3.org/2000/svg" width="30.275" height="30.275" viewBox="0 0 30.275 30.275">
  <path id="linkedin-brands" d="M28.113,32H2.156A2.172,2.172,0,0,0,0,34.183v25.91a2.172,2.172,0,0,0,2.156,2.183H28.113a2.178,2.178,0,0,0,2.163-2.183V34.183A2.178,2.178,0,0,0,28.113,32ZM9.15,57.95H4.663V43.5H9.157V57.95ZM6.907,41.529a2.6,2.6,0,1,1,2.6-2.6A2.6,2.6,0,0,1,6.907,41.529ZM25.97,57.95H21.483V50.922c0-1.676-.034-3.832-2.331-3.832-2.338,0-2.7,1.825-2.7,3.71v7.15H11.968V43.5h4.3v1.973h.061a4.726,4.726,0,0,1,4.251-2.331c4.541,0,5.386,2.994,5.386,6.886Z" transform="translate(0 -32)" fill="#3ecfd4"/>
</svg>
