<svg xmlns="http://www.w3.org/2000/svg" width="30.275" height="30.275" viewBox="0 0 30.275 30.275">
  <path id="behance-square-brands" d="M12.6,49.638c0,1.3-.946,1.716-2.108,1.716H7.447V47.78h3.109c1.257.007,2.048.527,2.048,1.858Zm-.52-5.562c0-1.2-.926-1.48-1.953-1.48H7.454v3.028H10.34C11.36,45.624,12.083,45.178,12.083,44.076Zm8.941,1.568a2.014,2.014,0,0,0-2.142,2.007h4.2A1.926,1.926,0,0,0,21.024,45.644Zm9.251-10.4V59.031a3.245,3.245,0,0,1-3.244,3.244H3.244A3.245,3.245,0,0,1,0,59.031V35.244A3.245,3.245,0,0,1,3.244,32H27.031A3.245,3.245,0,0,1,30.275,35.244Zm-11.914,7.1h5.258V41.062H18.361Zm-2.906,7.454a3.36,3.36,0,0,0-2.365-3.487,2.523,2.523,0,0,0,1.771-2.5c0-2.581-1.926-3.21-4.149-3.21H4.6V53.571h6.292C13.245,53.558,15.455,52.429,15.455,49.793Zm10.225-1c0-2.777-1.629-5.1-4.568-5.1a4.717,4.717,0,0,0-4.8,4.974,4.578,4.578,0,0,0,4.8,4.933,4.19,4.19,0,0,0,4.4-3.163H23.233a2.138,2.138,0,0,1-2.041,1.223,2.12,2.12,0,0,1-2.3-2.386H25.66c.007-.155.02-.324.02-.487Z" transform="translate(0 -32)" fill="#3ecfd4"/>
</svg>
