<svg xmlns="http://www.w3.org/2000/svg" width="77.451" height="68.845" viewBox="0 0 77.451 68.845">
  <path id="laptop-solid" d="M44.9,36.332a2.694,2.694,0,0,0,3.8-.006l6.454-6.454a2.693,2.693,0,0,0,0-3.807l-6.454-6.454a2.69,2.69,0,1,0-3.8,3.807l4.553,4.55-4.553,4.55A2.685,2.685,0,0,0,44.9,36.332ZM71,0H6.454A6.456,6.456,0,0,0,0,6.454V49.483a6.456,6.456,0,0,0,6.454,6.454H32.271L30.12,62.391H20.438a3.227,3.227,0,0,0,0,6.454H57.012a3.227,3.227,0,1,0,0-6.454H47.331L45.18,55.937H71a6.456,6.456,0,0,0,6.454-6.454V6.454A6.456,6.456,0,0,0,71,0ZM68.845,47.331H8.606V8.606h60.24Zm-40.084-11a2.694,2.694,0,0,0,3.792,0,2.693,2.693,0,0,0,0-3.807l-4.545-4.557,4.545-4.545a2.69,2.69,0,1,0-3.8-3.807L22.3,26.071a2.693,2.693,0,0,0,0,3.807Z" fill="#3ecfd4"/>
</svg>
