<svg xmlns="http://www.w3.org/2000/svg" width="78.68" height="68.845" viewBox="0 0 78.68 68.845">
  <path id="window-restore-solid" d="M0,41.835A9.834,9.834,0,0,1,9.835,32h59.01a9.839,9.839,0,0,1,9.835,9.835V91.01a9.844,9.844,0,0,1-9.835,9.835H9.835A9.839,9.839,0,0,1,0,91.01Zm68.845,4.918a4.918,4.918,0,1,0-4.918,4.918A4.912,4.912,0,0,0,68.845,46.753Zm-24.588,0a4.918,4.918,0,1,0,4.918-4.918A4.912,4.912,0,0,0,44.258,46.753Zm-4.918,0a4.918,4.918,0,1,0-4.918,4.918A4.912,4.912,0,0,0,39.34,46.753Z" transform="translate(0 -32)" fill="#3ecfd4"/>
</svg>
